<svg width="214" height="82" viewBox="0 0 214 82" fill="none" xmlns="http://www.w3.org/2000/svg">
<g id="Frame 1000003446">
<g id="Group">
<path id="Vector" opacity="0.985" fill-rule="evenodd" clip-rule="evenodd" d="M133.381 0.648926C140.345 0.857039 145.192 4.15421 147.921 10.5402C148.278 11.5046 148.543 12.4938 148.713 13.5076C148.812 35.0705 148.845 56.6335 148.812 78.1968C140.873 77.8086 135.828 73.7862 133.678 66.1294C133.384 44.3085 133.285 22.4816 133.381 0.648926Z" fill="#3778C2"/>
</g>
<g id="Group_2">
<path id="Vector_2" opacity="0.986" fill-rule="evenodd" clip-rule="evenodd" d="M40.4035 1.04489C46.51 0.914131 52.3128 2.13413 57.8122 4.70468C44.09 4.98599 33.5724 10.8877 26.2589 22.4101C24.8741 24.784 23.4894 27.1579 22.1046 29.5319C20.6456 31.52 18.8323 33.0696 16.6644 34.1808C13.8722 35.2217 11.4653 34.6613 9.4437 32.4992C7.82054 28.3696 8.08424 24.3472 10.235 20.4319C15.6491 11.9857 23.0676 6.01785 32.4904 2.52859C35.113 1.79525 37.7508 1.30068 40.4035 1.04489ZM14.4883 18.2558C13.3302 20.6091 12.4071 23.0489 11.7187 25.5753C11.437 25.974 11.3052 26.4355 11.3231 26.9601C11.1567 27.3318 11.0906 27.7275 11.1252 28.1471C10.9933 28.9384 10.8615 29.7297 10.7296 30.521C9.91433 27.3827 10.3428 24.4153 12.0154 21.6188C12.7363 20.4061 13.5607 19.2851 14.4883 18.2558Z" fill="#3778C2"/>
</g>
<g id="Group_3">
<path id="Vector_3" opacity="0.139" fill-rule="evenodd" clip-rule="evenodd" d="M60.1854 7.57277C57.4129 7.54805 54.6433 7.61412 51.8767 7.7706C53.4815 7.47169 55.1302 7.33974 56.8224 7.37495C57.9783 7.37515 59.0993 7.44102 60.1854 7.57277Z" fill="#3778C2"/>
</g>
<g id="Group_4">
<path id="Vector_4" opacity="0.974" fill-rule="evenodd" clip-rule="evenodd" d="M60.1851 7.57317C61.7212 7.64201 63.2379 7.83984 64.7351 8.16665C65.319 8.54449 65.9786 8.74232 66.7133 8.76012C68.1719 8.88357 69.4906 9.37813 70.6698 10.2438C83.7099 21.2149 87.9632 34.9638 83.4296 51.4906C82.0971 56.0501 80.2838 60.4022 77.9894 64.5471C77.9235 64.4482 77.8574 64.3493 77.7916 64.2503C79.8488 55.398 78.8266 46.9245 74.7253 38.8297C71.2778 32.9422 66.4971 28.4911 60.3829 25.4764C56.2026 23.6497 51.9824 21.9351 47.722 20.333C44.0994 18.5575 41.7914 15.7218 40.7981 11.8264C41.5722 11.0411 42.4954 10.4476 43.5677 10.046C44.6074 9.62245 45.6626 9.25983 46.7329 8.95795C47.2575 8.97575 47.719 8.844 48.1177 8.5623C49.306 8.10018 50.559 7.83647 51.8764 7.77099C54.643 7.61451 57.4125 7.54844 60.1851 7.57317ZM47.1285 15.684C48.9238 16.7462 50.8362 17.5375 52.8655 18.058C53.2641 18.3397 53.7256 18.4714 54.2503 18.4536C61.8848 19.8799 68.1824 23.5727 73.1427 29.5319C74.4614 31.2808 75.4833 33.1932 76.209 35.2688C76.209 35.3347 76.209 35.4008 76.209 35.4666C72.6153 29.1378 67.4718 24.4889 60.7785 21.5199C57.7854 20.7551 54.818 19.8979 51.8764 18.9482C50.724 18.4051 49.6029 17.8117 48.5133 17.1677C47.8769 16.8285 47.4154 16.3339 47.1285 15.684Z" fill="#3778C2"/>
</g>
<g id="Group_5">
<path id="Vector_5" opacity="0.184" fill-rule="evenodd" clip-rule="evenodd" d="M64.7354 8.16626C65.4507 8.24519 66.1102 8.44302 66.7136 8.75974C65.9789 8.74193 65.3193 8.54411 64.7354 8.16626Z" fill="#3778C2"/>
</g>
<g id="Group_6">
<path id="Vector_6" opacity="0.369" fill-rule="evenodd" clip-rule="evenodd" d="M48.1172 8.56189C47.7186 8.8436 47.2571 8.97535 46.7324 8.95754C47.131 8.67584 47.5926 8.54409 48.1172 8.56189Z" fill="#3778C2"/>
</g>
<g id="Group_7">
<path id="Vector_7" opacity="0.11" fill-rule="evenodd" clip-rule="evenodd" d="M14.8829 17.8595C14.8829 17.7275 14.817 17.6617 14.6851 17.6617C14.7844 17.3481 14.9822 17.2492 15.2785 17.3649C15.1666 17.5618 15.0346 17.7265 14.8829 17.8595Z" fill="#3778C2"/>
</g>
<g id="Group_8">
<path id="Vector_8" opacity="0.584" fill-rule="evenodd" clip-rule="evenodd" d="M52.8645 18.0575C53.3891 18.0397 53.8507 18.1714 54.2493 18.4532C53.7246 18.471 53.2631 18.3392 52.8645 18.0575Z" fill="#3778C2"/>
</g>
<g id="Group_9">
<path id="Vector_9" opacity="0.972" fill-rule="evenodd" clip-rule="evenodd" d="M25.1699 74.0425C24.6186 73.8493 24.0251 73.7834 23.3895 73.8447C22.0126 73.7539 20.6937 73.4902 19.433 73.0534C18.8385 72.7019 18.1792 72.5041 17.4547 72.4599C16.0094 72.143 14.6246 71.6485 13.3004 70.9762C3.44388 62.0519 -0.677433 50.9406 0.936234 37.6425C1.74673 31.8828 3.2965 26.3437 5.58515 21.0251C4.87614 27.8577 5.76636 34.5179 8.2558 41.0056C11.6404 48.5445 17.0806 54.0506 24.5765 57.5241C26.707 58.4323 28.8831 59.2236 31.1047 59.898C34.8551 60.5326 38.416 61.7196 41.7873 63.4588C43.7325 64.6128 45.2823 66.1625 46.4362 68.1078C46.5715 68.3618 46.5385 68.5926 46.3373 68.8002C39.9414 73.1852 32.8857 74.9326 25.1699 74.0425ZM19.8286 57.8208C22.1539 60.2367 24.9895 61.7204 28.3351 62.2719C30.8505 62.5037 33.3564 62.8005 35.8525 63.1621C36.1354 63.3673 36.4652 63.4992 36.8417 63.5578C39.291 64.2606 41.2033 65.6785 42.5786 67.811C41.3843 67.1817 40.1313 66.5883 38.8199 66.0306C37.5906 65.6595 36.3376 65.4286 35.0612 65.3382C34.5051 65.1453 33.9117 65.0134 33.2808 64.9425C29.1589 64.5914 25.4661 63.1738 22.2025 60.6893C21.2154 59.8695 20.4241 58.9134 19.8286 57.8208Z" fill="#3778C2"/>
</g>
<g id="Group_10">
<path id="Vector_10" opacity="0.514" fill-rule="evenodd" clip-rule="evenodd" d="M11.7163 25.5757C11.7341 26.1003 11.6024 26.5618 11.3207 26.9605C11.3029 26.4358 11.4346 25.9743 11.7163 25.5757Z" fill="#3778C2"/>
</g>
<g id="Group_11">
<path id="Vector_11" opacity="0.978" fill-rule="evenodd" clip-rule="evenodd" d="M120.125 26.96C122.309 26.9888 124.485 27.1206 126.653 27.3556C126.376 31.5193 125.024 35.278 122.598 38.6317C121.718 39.6426 120.63 40.335 119.334 40.7089C112.458 40.5961 108.468 43.9261 107.365 50.6991C106.98 55.57 106.782 60.4495 106.772 65.3382C105.288 72.361 101.035 76.6143 94.0121 78.098C93.1573 78.1967 92.3001 78.2298 91.4404 78.1969C91.4073 65.9315 91.4404 53.6663 91.5393 41.4013C92.387 36.5033 94.9257 32.7774 99.1556 30.2241C101.554 28.8826 104.126 28.2561 106.871 28.3447C106.838 30.9832 106.871 33.621 106.97 36.2578C108.877 32.3723 111.811 29.5697 115.773 27.8502C117.223 27.4086 118.674 27.1119 120.125 26.96Z" fill="#3778C2"/>
</g>
<g id="Group_12">
<path id="Vector_12" opacity="0.977" fill-rule="evenodd" clip-rule="evenodd" d="M184.024 26.96C192.659 26.5954 200.145 29.2991 206.477 35.0709C212.76 42.1971 214.869 50.44 212.808 59.7991C210.145 69.5828 203.913 75.8143 194.113 78.4937C184.649 80.8352 175.879 79.3186 167.802 73.9437C160.704 68.0855 157.44 60.535 158.01 51.2926C159.383 38.8396 166.142 31.0255 178.287 27.8502C180.212 27.4482 182.125 27.1515 184.024 26.96ZM183.43 40.8078C188.184 40.0952 192.174 41.48 195.399 44.9622C197.587 48.1929 198.378 51.7537 197.773 55.6448C196.833 61.2666 193.569 64.5966 187.98 65.635C184.317 66.2014 180.954 65.4761 177.891 63.4589C174.396 60.1609 172.977 56.1055 173.638 51.2926C174.439 45.448 177.703 41.953 183.43 40.8078Z" fill="#3778C2"/>
</g>
<g id="Group_13">
<path id="Vector_13" opacity="0.48" fill-rule="evenodd" clip-rule="evenodd" d="M11.1238 28.1462C11.1885 29.0788 11.1224 30.0018 10.926 30.9158C10.7681 30.8254 10.7022 30.6934 10.7281 30.5202C10.8601 29.7288 10.9918 28.9375 11.1238 28.1462Z" fill="#3778C2"/>
</g>
<g id="Group_14">
<path id="Vector_14" fill-rule="evenodd" clip-rule="evenodd" d="M76.2081 35.2686C76.5244 35.5255 76.6233 35.8551 76.5048 36.2577C76.2698 36.0474 76.1709 35.7835 76.2081 35.4664C76.2081 35.4005 76.2081 35.3344 76.2081 35.2686Z" fill="#3778C2"/>
</g>
<g id="Group_15">
<path id="Vector_15" opacity="0.99" fill-rule="evenodd" clip-rule="evenodd" d="M24.5757 77.0094C25.127 76.8161 25.7205 76.7502 26.3561 76.8115C35.4427 77.1567 43.4875 74.4861 50.4909 68.7996C54.5362 65.1515 57.9982 61.03 60.8768 56.4354C62.9561 53.495 65.7257 51.5826 69.1855 50.6985C72.9582 50.7072 75.1013 52.6526 75.6148 56.5344C75.5345 60.4572 74.1828 63.9853 71.5594 67.1181C65.2268 74.5551 57.2807 79.336 47.7213 81.4604C39.7315 82.7069 32.0163 81.2232 24.5757 77.0094ZM61.3713 72.855C64.2086 70.1163 66.8792 67.2148 69.3833 64.1507C71.0601 61.9192 72.3788 59.4794 73.3398 56.8311C73.2403 60.2944 72.1192 63.3938 69.9768 66.1289C67.6315 69.0625 64.7631 71.3046 61.3713 72.855ZM61.3713 72.855C61.2778 73.1332 61.0799 73.2651 60.7779 73.2507C60.8714 72.9725 61.0693 72.8406 61.3713 72.855Z" fill="#3778C2"/>
</g>
<g id="Group_16">
<path id="Vector_16" fill-rule="evenodd" clip-rule="evenodd" d="M19.6315 57.4254C19.1067 57.2984 18.876 56.9688 18.9391 56.4363C19.1718 56.7718 19.4026 57.1014 19.6315 57.4254Z" fill="#3778C2"/>
</g>
<g id="Group_17">
<path id="Vector_17" opacity="0.616" fill-rule="evenodd" clip-rule="evenodd" d="M35.8516 63.1623C36.2864 63.0871 36.6162 63.2191 36.8407 63.558C36.4642 63.4994 36.1345 63.3675 35.8516 63.1623Z" fill="#3778C2"/>
</g>
<g id="Group_18">
<path id="Vector_18" opacity="0.608" fill-rule="evenodd" clip-rule="evenodd" d="M33.2808 64.9426C33.9116 65.0134 34.5051 65.1454 35.0612 65.3383C34.3931 65.4237 33.7997 65.2918 33.2808 64.9426Z" fill="#3778C2"/>
</g>
<g id="Group_19">
<path id="Vector_19" opacity="0.631" fill-rule="evenodd" clip-rule="evenodd" d="M17.4536 72.46C18.1781 72.5041 18.8374 72.7019 19.4319 73.0534C18.7074 73.0093 18.0481 72.8115 17.4536 72.46Z" fill="#3778C2"/>
</g>
<g id="Group_20">
<path id="Vector_20" opacity="0.514" fill-rule="evenodd" clip-rule="evenodd" d="M23.3901 73.8449C24.0258 73.7836 24.6192 73.8495 25.1706 74.0428C25.1834 74.1294 25.1506 74.1955 25.0717 74.2406C24.4902 74.1163 23.9298 73.9844 23.3901 73.8449Z" fill="#3778C2"/>
</g>
<g id="Group_21">
<path id="Vector_21" opacity="0.514" fill-rule="evenodd" clip-rule="evenodd" d="M26.3569 76.812C25.7213 76.7507 25.1278 76.8165 24.5765 77.0098C24.3424 76.8112 24.0787 76.6462 23.7852 76.5153C24.6716 76.5113 25.529 76.6102 26.3569 76.812Z" fill="#3778C2"/>
</g>
</g>
</svg>
