<svg width="98" height="38" viewBox="0 0 98 38" fill="none" xmlns="http://www.w3.org/2000/svg">
<g id="Frame 1000003446">
<g id="Group">
<path id="Vector" opacity="0.985" fill-rule="evenodd" clip-rule="evenodd" d="M60.9181 0.11377C64.0846 0.208394 66.2883 1.70754 67.5292 4.61112C67.6911 5.04961 67.8117 5.49935 67.889 5.96033C67.934 15.7645 67.9493 25.5687 67.934 35.373C64.3244 35.1965 62.0308 33.3676 61.053 29.8862C60.9192 19.9648 60.8742 10.0406 60.9181 0.11377Z" fill="#3778C2"/>
</g>
<g id="Group_2">
<path id="Vector_2" opacity="0.986" fill-rule="evenodd" clip-rule="evenodd" d="M18.6427 0.293623C21.4192 0.234168 24.0576 0.788872 26.558 1.95764C20.3189 2.08555 15.5367 4.76894 12.2115 10.0079C11.5819 11.0873 10.9522 12.1666 10.3226 13.246C9.65924 14.15 8.83479 14.8545 7.84906 15.3598C6.57955 15.8331 5.48516 15.5782 4.56599 14.5952C3.82798 12.7176 3.94788 10.8887 4.92578 9.10843C7.38745 5.26815 10.7605 2.55471 15.0448 0.968226C16.2373 0.634793 17.4366 0.409925 18.6427 0.293623ZM6.85964 8.11902C6.33309 9.18903 5.9134 10.2983 5.60038 11.4471C5.4723 11.6283 5.41239 11.8381 5.42049 12.0767C5.34484 12.2457 5.3148 12.4256 5.33054 12.6164C5.27055 12.9762 5.21064 13.3359 5.15065 13.6957C4.77998 12.2688 4.9748 10.9196 5.7353 9.64812C6.06307 9.09674 6.43788 8.58701 6.85964 8.11902Z" fill="#3778C2"/>
</g>
<g id="Group_3">
<path id="Vector_3" opacity="0.139" fill-rule="evenodd" clip-rule="evenodd" d="M27.6376 3.26191C26.377 3.25067 25.1178 3.28071 23.8599 3.35186C24.5895 3.21595 25.3391 3.15595 26.1085 3.17196C26.6341 3.17205 27.1438 3.20201 27.6376 3.26191Z" fill="#3778C2"/>
</g>
<g id="Group_4">
<path id="Vector_4" opacity="0.974" fill-rule="evenodd" clip-rule="evenodd" d="M27.6376 3.26182C28.336 3.29312 29.0256 3.38307 29.7063 3.53166C29.9719 3.70346 30.2718 3.79341 30.6058 3.8015C31.269 3.85763 31.8686 4.0825 32.4048 4.4761C38.3338 9.46439 40.2677 15.7157 38.2063 23.2301C37.6005 25.3032 36.776 27.282 35.7328 29.1666C35.7028 29.1216 35.6728 29.0766 35.6429 29.0317C36.5782 25.0067 36.1135 21.154 34.2487 17.4735C32.6812 14.7965 30.5075 12.7727 27.7275 11.402C25.8268 10.5715 23.908 9.79188 21.9709 9.0634C20.3238 8.25613 19.2744 6.96683 18.8228 5.19568C19.1747 4.83859 19.5945 4.56875 20.082 4.38616C20.5548 4.19358 21.0346 4.02871 21.5212 3.89145C21.7597 3.89954 21.9696 3.83964 22.1508 3.71155C22.6911 3.50144 23.2608 3.38154 23.8598 3.35177C25.1177 3.28062 26.377 3.25057 27.6376 3.26182ZM21.7011 6.94965C22.5173 7.43257 23.3868 7.79236 24.3095 8.02901C24.4908 8.1571 24.7006 8.217 24.9392 8.20891C28.4104 8.85742 31.2738 10.5365 33.5291 13.2459C34.1287 14.0412 34.5934 14.9107 34.9233 15.8544C34.9233 15.8844 34.9233 15.9144 34.9233 15.9444C33.2893 13.0668 30.9507 10.953 27.9074 9.60309C26.5465 9.25535 25.1973 8.86561 23.8598 8.43377C23.3358 8.18687 22.8261 7.91703 22.3307 7.62425C22.0413 7.46999 21.8315 7.24512 21.7011 6.94965Z" fill="#3778C2"/>
</g>
<g id="Group_5">
<path id="Vector_5" opacity="0.184" fill-rule="evenodd" clip-rule="evenodd" d="M29.7061 3.53174C30.0313 3.56763 30.3312 3.65757 30.6055 3.80158C30.2715 3.79348 29.9716 3.70354 29.7061 3.53174Z" fill="#3778C2"/>
</g>
<g id="Group_6">
<path id="Vector_6" opacity="0.369" fill-rule="evenodd" clip-rule="evenodd" d="M22.1506 3.71166C21.9694 3.83974 21.7595 3.89965 21.521 3.89155C21.7022 3.76347 21.9121 3.70357 22.1506 3.71166Z" fill="#3778C2"/>
</g>
<g id="Group_7">
<path id="Vector_7" opacity="0.11" fill-rule="evenodd" clip-rule="evenodd" d="M7.03965 7.93902C7.03965 7.87902 7.0097 7.84907 6.94971 7.84907C6.99486 7.7065 7.08481 7.66153 7.21955 7.71415C7.16864 7.80365 7.10864 7.87857 7.03965 7.93902Z" fill="#3778C2"/>
</g>
<g id="Group_8">
<path id="Vector_8" opacity="0.584" fill-rule="evenodd" clip-rule="evenodd" d="M24.3096 8.02904C24.5481 8.02095 24.758 8.08085 24.9392 8.20894C24.7007 8.21703 24.4908 8.15713 24.3096 8.02904Z" fill="#3778C2"/>
</g>
<g id="Group_9">
<path id="Vector_9" opacity="0.972" fill-rule="evenodd" clip-rule="evenodd" d="M11.7168 33.4842C11.4661 33.3964 11.1963 33.3664 10.9073 33.3943C10.2812 33.353 9.68157 33.2331 9.10834 33.0345C8.83805 32.8747 8.53825 32.7847 8.20887 32.7647C7.55171 32.6206 6.92209 32.3957 6.31998 32.09C1.83846 28.0324 -0.0354092 22.9803 0.698289 16.934C1.0668 14.3152 1.77145 11.7966 2.81204 9.37842C2.48967 12.485 2.89444 15.5133 4.02633 18.4631C5.56523 21.8909 8.03878 24.3944 11.447 25.9736C12.4157 26.3866 13.4051 26.7464 14.4152 27.053C16.1204 27.3416 17.7395 27.8812 19.2724 28.6721C20.1568 29.1967 20.8614 29.9014 21.3861 30.7858C21.4476 30.9013 21.4326 31.0063 21.3411 31.1006C18.4331 33.0944 15.225 33.8889 11.7168 33.4842ZM9.28823 26.1086C10.3455 27.207 11.6348 27.8816 13.156 28.1324C14.2996 28.2378 15.439 28.3727 16.5739 28.5371C16.7026 28.6304 16.8525 28.6904 17.0237 28.717C18.1373 29.0366 19.0068 29.6813 19.6321 30.6509C19.0891 30.3648 18.5194 30.0949 17.9231 29.8414C17.3642 29.6726 16.7945 29.5677 16.2142 29.5266C15.9613 29.4389 15.6915 29.3789 15.4046 29.3467C13.5305 29.187 11.8515 28.5424 10.3676 27.4128C9.91876 27.0401 9.55897 26.6053 9.28823 26.1086Z" fill="#3778C2"/>
</g>
<g id="Group_10">
<path id="Vector_10" opacity="0.514" fill-rule="evenodd" clip-rule="evenodd" d="M5.60054 11.447C5.60863 11.6856 5.54873 11.8954 5.42064 12.0767C5.41255 11.8381 5.47245 11.6283 5.60054 11.447Z" fill="#3778C2"/>
</g>
<g id="Group_11">
<path id="Vector_11" opacity="0.978" fill-rule="evenodd" clip-rule="evenodd" d="M54.8912 12.0767C55.8842 12.0898 56.8737 12.1497 57.8595 12.2566C57.7334 14.1497 57.1187 15.8587 56.0156 17.3835C55.6153 17.8432 55.1206 18.158 54.5314 18.328C51.405 18.2767 49.5911 19.7908 49.0896 22.8703C48.9142 25.085 48.8243 27.3036 48.8198 29.5264C48.1452 32.7195 46.2113 34.6534 43.0182 35.328C42.6295 35.3729 42.2398 35.3879 41.8489 35.3729C41.8339 29.7961 41.8489 24.2194 41.8939 18.6428C42.2793 16.4158 43.4336 14.7217 45.3568 13.5608C46.4475 12.9509 47.6168 12.666 48.8648 12.7063C48.8497 13.9059 48.8648 15.1053 48.9097 16.3042C49.7768 14.5375 51.1111 13.2632 52.9124 12.4814C53.5716 12.2807 54.2312 12.1457 54.8912 12.0767Z" fill="#3778C2"/>
</g>
<g id="Group_12">
<path id="Vector_12" opacity="0.977" fill-rule="evenodd" clip-rule="evenodd" d="M83.9443 12.0768C87.8705 11.911 91.2741 13.1403 94.1533 15.7646C97.01 19.0048 97.9689 22.7526 97.0316 27.008C95.8209 31.4564 92.9876 34.2898 88.5316 35.508C84.2285 36.5726 80.2412 35.8831 76.5687 33.4392C73.3414 30.7756 71.8572 27.3426 72.1163 23.1403C72.7405 17.4782 75.814 13.9253 81.3358 12.4815C82.211 12.2988 83.0808 12.1639 83.9443 12.0768ZM83.6745 18.3731C85.8359 18.0491 87.6501 18.6787 89.1163 20.262C90.1111 21.7309 90.4709 23.3499 90.1956 25.1191C89.7684 27.6752 88.2843 29.1893 85.7433 29.6614C84.0774 29.919 82.5483 29.5892 81.156 28.672C79.5666 27.1725 78.9217 25.3286 79.2221 23.1403C79.5864 20.4829 81.0705 18.8938 83.6745 18.3731Z" fill="#3778C2"/>
</g>
<g id="Group_13">
<path id="Vector_13" opacity="0.48" fill-rule="evenodd" clip-rule="evenodd" d="M5.33083 12.6165C5.36024 13.0405 5.3302 13.4602 5.24088 13.8757C5.1691 13.8346 5.13915 13.7746 5.15093 13.6958C5.21093 13.336 5.27083 12.9762 5.33083 12.6165Z" fill="#3778C2"/>
</g>
<g id="Group_14">
<path id="Vector_14" fill-rule="evenodd" clip-rule="evenodd" d="M34.9234 15.8545C35.0672 15.9713 35.1122 16.1212 35.0583 16.3042C34.9515 16.2086 34.9065 16.0886 34.9234 15.9444C34.9234 15.9145 34.9234 15.8844 34.9234 15.8545Z" fill="#3778C2"/>
</g>
<g id="Group_15">
<path id="Vector_15" opacity="0.99" fill-rule="evenodd" clip-rule="evenodd" d="M11.4468 34.8333C11.6975 34.7454 11.9673 34.7155 12.2563 34.7434C16.3877 34.9003 20.0455 33.686 23.2298 31.1005C25.0692 29.4418 26.6432 27.5678 27.9521 25.4788C28.8975 24.1419 30.1568 23.2723 31.7298 22.8704C33.4452 22.8743 34.4196 23.7589 34.6531 25.5238C34.6166 27.3074 34.002 28.9116 32.8092 30.336C29.9299 33.7174 26.317 35.8912 21.9706 36.8571C18.3378 37.4239 14.8299 36.7493 11.4468 34.8333ZM28.1769 32.9444C29.467 31.6992 30.6812 30.38 31.8198 28.9868C32.5822 27.9722 33.1818 26.8628 33.6187 25.6587C33.5735 27.2334 33.0638 28.6426 32.0896 29.8862C31.0233 31.2201 29.7191 32.2395 28.1769 32.9444ZM28.1769 32.9444C28.1344 33.0709 28.0444 33.1309 27.9071 33.1243C27.9496 32.9979 28.0396 32.9379 28.1769 32.9444Z" fill="#3778C2"/>
</g>
<g id="Group_16">
<path id="Vector_16" fill-rule="evenodd" clip-rule="evenodd" d="M9.19834 25.9285C8.95971 25.8707 8.85484 25.7209 8.88353 25.4788C8.98931 25.6313 9.09427 25.7812 9.19834 25.9285Z" fill="#3778C2"/>
</g>
<g id="Group_17">
<path id="Vector_17" opacity="0.616" fill-rule="evenodd" clip-rule="evenodd" d="M16.5742 28.5369C16.7719 28.5027 16.9219 28.5627 17.024 28.7168C16.8528 28.6902 16.7028 28.6302 16.5742 28.5369Z" fill="#3778C2"/>
</g>
<g id="Group_18">
<path id="Vector_18" opacity="0.608" fill-rule="evenodd" clip-rule="evenodd" d="M15.4048 29.3467C15.6916 29.3789 15.9615 29.4389 16.2143 29.5266C15.9106 29.5654 15.6407 29.5054 15.4048 29.3467Z" fill="#3778C2"/>
</g>
<g id="Group_19">
<path id="Vector_19" opacity="0.631" fill-rule="evenodd" clip-rule="evenodd" d="M8.20898 32.7646C8.53837 32.7847 8.83816 32.8747 9.10845 33.0345C8.77907 33.0144 8.47928 32.9245 8.20898 32.7646Z" fill="#3778C2"/>
</g>
<g id="Group_20">
<path id="Vector_20" opacity="0.514" fill-rule="evenodd" clip-rule="evenodd" d="M10.9072 33.3941C11.1962 33.3662 11.4661 33.3962 11.7168 33.4841C11.7226 33.5235 11.7077 33.5535 11.6718 33.574C11.4074 33.5175 11.1526 33.4575 10.9072 33.3941Z" fill="#3778C2"/>
</g>
<g id="Group_21">
<path id="Vector_21" opacity="0.514" fill-rule="evenodd" clip-rule="evenodd" d="M12.2567 34.7434C11.9677 34.7155 11.6979 34.7454 11.4472 34.8333C11.3408 34.743 11.2209 34.668 11.0874 34.6085C11.4905 34.6067 11.8803 34.6516 12.2567 34.7434Z" fill="#3778C2"/>
</g>
</g>
</svg>
