<svg width="158" height="61" viewBox="0 0 158 61" fill="none" xmlns="http://www.w3.org/2000/svg">
<g id="Frame 1000003446">
<g id="Group">
<path id="Vector" opacity="0.985" fill-rule="evenodd" clip-rule="evenodd" d="M98.0034 0.426758C103.137 0.580164 106.71 3.01061 108.721 7.71795C108.984 8.42884 109.179 9.15796 109.305 9.9053C109.378 25.8 109.402 41.6947 109.378 57.5897C103.526 57.3036 99.8073 54.3385 98.2221 48.6944C98.0052 32.6096 97.9323 16.5203 98.0034 0.426758Z" fill="white"/>
</g>
<g id="Group_2">
<path id="Vector_2" opacity="0.986" fill-rule="evenodd" clip-rule="evenodd" d="M29.4664 0.718912C33.9677 0.622523 38.2452 1.52182 42.2989 3.41665C32.1838 3.62401 24.431 7.97438 19.04 16.4679C18.0192 18.2178 16.9985 19.9677 15.9777 21.7175C14.9023 23.1831 13.5656 24.3253 11.9676 25.1444C9.9094 25.9117 8.13516 25.4986 6.64499 23.9049C5.4485 20.8608 5.64288 17.8958 7.22828 15.0096C11.2192 8.7837 16.6876 4.38463 23.6335 1.81259C25.5666 1.27202 27.5111 0.907463 29.4664 0.718912ZM10.3635 13.4056C9.50984 15.1403 8.82943 16.9387 8.32196 18.8011C8.11431 19.0949 8.01719 19.4351 8.03031 19.8218C7.90767 20.0958 7.85897 20.3875 7.88449 20.6968C7.78722 21.2801 7.69011 21.8634 7.59284 22.4467C6.9919 20.1333 7.30776 17.946 8.5407 15.8846C9.07208 14.9907 9.67973 14.1643 10.3635 13.4056Z" fill="white"/>
</g>
<g id="Group_3">
<path id="Vector_3" opacity="0.139" fill-rule="evenodd" clip-rule="evenodd" d="M44.0484 5.53078C42.0047 5.51256 39.9632 5.56126 37.9238 5.67661C39.1068 5.45627 40.322 5.359 41.5694 5.38496C42.4215 5.38511 43.2479 5.43367 44.0484 5.53078Z" fill="white"/>
</g>
<g id="Group_4">
<path id="Vector_4" opacity="0.974" fill-rule="evenodd" clip-rule="evenodd" d="M44.0485 5.53009C45.1809 5.58084 46.2989 5.72666 47.4025 5.96756C47.833 6.24609 48.3191 6.39191 48.8607 6.40503C49.9359 6.49603 50.908 6.86059 51.7772 7.49871C61.3895 15.5858 64.5247 25.7206 61.1828 37.903C60.2006 41.2639 58.864 44.4721 57.1727 47.5274C57.1241 47.4544 57.0754 47.3815 57.0269 47.3086C58.5433 40.7833 57.7898 34.5372 54.7666 28.5703C52.2253 24.2304 48.7013 20.9494 44.1944 18.7271C41.113 17.3806 38.0021 16.1168 34.8616 14.9357C32.1913 13.627 30.49 11.5367 29.7578 8.6653C30.3284 8.08638 31.009 7.64891 31.7993 7.35289C32.5658 7.04068 33.3436 6.77338 34.1325 6.55086C34.5193 6.56398 34.8595 6.46686 35.1533 6.25921C36.0293 5.91857 36.9529 5.72418 37.9239 5.67591C39.9633 5.56057 42.0048 5.51186 44.0485 5.53009ZM34.4242 11.5089C35.7475 12.2918 37.1572 12.8751 38.6531 13.2588C38.9469 13.4664 39.2871 13.5635 39.6738 13.5504C45.3015 14.6018 49.9436 17.3239 53.6 21.7165C54.5721 23.0058 55.3254 24.4154 55.8603 25.9454C55.8603 25.994 55.8603 26.0427 55.8603 26.0913C53.2112 21.4261 49.4198 17.9992 44.486 15.8107C42.2797 15.2469 40.0923 14.6151 37.9239 13.915C37.0745 13.5147 36.2481 13.0772 35.4449 12.6025C34.9758 12.3525 34.6356 11.9879 34.4242 11.5089Z" fill="white"/>
</g>
<g id="Group_5">
<path id="Vector_5" opacity="0.184" fill-rule="evenodd" clip-rule="evenodd" d="M47.4028 5.96875C47.9301 6.02693 48.4163 6.17276 48.8611 6.40622C48.3195 6.3931 47.8333 6.24727 47.4028 5.96875Z" fill="white"/>
</g>
<g id="Group_6">
<path id="Vector_6" opacity="0.369" fill-rule="evenodd" clip-rule="evenodd" d="M35.1536 6.25898C34.8597 6.46664 34.5195 6.56376 34.1328 6.55063C34.4266 6.34298 34.7669 6.24586 35.1536 6.25898Z" fill="white"/>
</g>
<g id="Group_7">
<path id="Vector_7" opacity="0.11" fill-rule="evenodd" clip-rule="evenodd" d="M10.6551 13.1129C10.6551 13.0157 10.6065 12.9671 10.5093 12.9671C10.5825 12.736 10.7283 12.6631 10.9467 12.7484C10.8642 12.8935 10.7669 13.0149 10.6551 13.1129Z" fill="white"/>
</g>
<g id="Group_8">
<path id="Vector_8" opacity="0.584" fill-rule="evenodd" clip-rule="evenodd" d="M38.6533 13.259C39.04 13.2459 39.3803 13.343 39.6741 13.5506C39.2874 13.5638 38.9472 13.4666 38.6533 13.259Z" fill="white"/>
</g>
<g id="Group_9">
<path id="Vector_9" opacity="0.972" fill-rule="evenodd" clip-rule="evenodd" d="M18.238 54.528C17.8316 54.3856 17.3941 54.337 16.9256 54.3822C15.9106 54.3153 14.9384 54.1209 14.0091 53.7989C13.5709 53.5398 13.0848 53.394 12.5508 53.3615C11.4855 53.1278 10.4647 52.7633 9.48854 52.2678C2.22301 45.6894 -0.814933 37.4989 0.374551 27.6965C0.971991 23.4508 2.11438 19.3677 3.80141 15.4473C3.27878 20.4837 3.93499 25.3932 5.77003 30.1755C8.26493 35.7327 12.2751 39.7914 17.8005 42.3518C19.371 43.0212 20.9751 43.6045 22.6127 44.1016C25.3772 44.5694 28.002 45.4444 30.4872 46.7265C31.9211 47.5771 33.0634 48.7194 33.914 50.1533C34.0138 50.3406 33.9894 50.5107 33.8411 50.6637C29.1265 53.896 23.9255 55.1841 18.238 54.528ZM14.3007 42.5705C16.0147 44.3513 18.105 45.445 20.5711 45.8515C22.4253 46.0224 24.2724 46.2412 26.1125 46.5077C26.321 46.659 26.5641 46.7562 26.8416 46.7994C28.647 47.3175 30.0567 48.3626 31.0705 49.9346C30.1901 49.4707 29.2665 49.0333 28.2998 48.6222C27.3937 48.3486 26.47 48.1784 25.5292 48.1118C25.1192 47.9696 24.6818 47.8724 24.2167 47.8202C21.1784 47.5613 18.4563 46.5163 16.0506 44.6849C15.3229 44.0806 14.7397 43.3759 14.3007 42.5705Z" fill="white"/>
</g>
<g id="Group_10">
<path id="Vector_10" opacity="0.514" fill-rule="evenodd" clip-rule="evenodd" d="M8.32163 18.8008C8.33475 19.1875 8.23763 19.5277 8.02998 19.8215C8.01686 19.4348 8.11397 19.0946 8.32163 18.8008Z" fill="white"/>
</g>
<g id="Group_11">
<path id="Vector_11" opacity="0.978" fill-rule="evenodd" clip-rule="evenodd" d="M88.2332 19.8213C89.8431 19.8426 91.4471 19.9397 93.0454 20.1129C92.8409 23.1821 91.8444 25.9527 90.056 28.4249C89.4071 29.1701 88.605 29.6804 87.6499 29.956C82.5812 29.8729 79.6405 32.3276 78.8275 37.3201C78.5432 40.9106 78.3974 44.5075 78.3901 48.1111C77.2964 53.2879 74.1612 56.4231 68.9844 57.5167C68.3543 57.5895 67.7225 57.6139 67.0887 57.5897C67.0644 48.5484 67.0887 39.5074 67.1616 30.4664C67.7865 26.856 69.6578 24.1095 72.7759 22.2274C74.5441 21.2386 76.4398 20.7767 78.463 20.8421C78.4386 22.7869 78.463 24.7313 78.5359 26.675C79.9416 23.8109 82.1048 21.745 85.0251 20.4775C86.0938 20.152 87.1631 19.9333 88.2332 19.8213Z" fill="white"/>
</g>
<g id="Group_12">
<path id="Vector_12" opacity="0.977" fill-rule="evenodd" clip-rule="evenodd" d="M135.334 19.8208C141.7 19.5521 147.218 21.545 151.885 25.7996C156.517 31.0526 158.071 37.1287 156.552 44.0276C154.589 51.2394 149.996 55.8329 142.771 57.8079C135.795 59.5339 129.331 58.416 123.377 54.454C118.145 50.1357 115.739 44.57 116.159 37.7572C117.171 28.5777 122.153 22.8177 131.106 20.477C132.524 20.1807 133.935 19.962 135.334 19.8208ZM134.897 30.0285C138.401 29.5032 141.342 30.524 143.719 33.0908C145.332 35.4722 145.915 38.0971 145.469 40.9653C144.777 45.1093 142.37 47.564 138.251 48.3294C135.55 48.7469 133.071 48.2123 130.814 46.7253C128.237 44.2943 127.192 41.3049 127.679 37.7572C128.269 33.4489 130.675 30.8727 134.897 30.0285Z" fill="white"/>
</g>
<g id="Group_13">
<path id="Vector_13" opacity="0.48" fill-rule="evenodd" clip-rule="evenodd" d="M7.88456 20.6963C7.93224 21.3837 7.88354 22.0641 7.73874 22.7378C7.62237 22.6712 7.57381 22.5739 7.59291 22.4462C7.69018 21.8629 7.78729 21.2796 7.88456 20.6963Z" fill="white"/>
</g>
<g id="Group_14">
<path id="Vector_14" fill-rule="evenodd" clip-rule="evenodd" d="M55.8606 25.9463C56.0938 26.1357 56.1667 26.3787 56.0793 26.6754C55.9061 26.5204 55.8332 26.3259 55.8606 26.0921C55.8606 26.0436 55.8606 25.9948 55.8606 25.9463Z" fill="white"/>
</g>
<g id="Group_15">
<path id="Vector_15" opacity="0.99" fill-rule="evenodd" clip-rule="evenodd" d="M17.8003 56.7149C18.2067 56.5724 18.6442 56.5239 19.1127 56.5691C25.8107 56.8235 31.7408 54.8549 36.9032 50.6632C39.8852 47.9741 42.4371 44.936 44.559 41.5492C46.0917 39.3817 48.1332 37.972 50.6836 37.3203C53.4646 37.3267 55.0443 38.7608 55.4228 41.6221C55.3636 44.5138 54.3672 47.1144 52.4334 49.4237C47.7655 54.9058 41.9082 58.4299 34.8617 59.9959C28.9721 60.9148 23.285 59.8211 17.8003 56.7149ZM44.9235 53.6526C47.0149 51.6338 48.9835 49.495 50.8294 47.2363C52.0654 45.5914 53.0374 43.793 53.7459 41.8409C53.6725 44.3938 52.8461 46.6784 51.2669 48.6946C49.5381 50.857 47.4237 52.5098 44.9235 53.6526ZM44.9235 53.6526C44.8545 53.8576 44.7087 53.9549 44.486 53.9442C44.555 53.7392 44.7008 53.6419 44.9235 53.6526Z" fill="white"/>
</g>
<g id="Group_16">
<path id="Vector_16" fill-rule="evenodd" clip-rule="evenodd" d="M14.1551 42.2789C13.7682 42.1853 13.5982 41.9424 13.6447 41.5498C13.8162 41.7971 13.9864 42.0401 14.1551 42.2789Z" fill="white"/>
</g>
<g id="Group_17">
<path id="Vector_17" opacity="0.616" fill-rule="evenodd" clip-rule="evenodd" d="M26.1123 46.5073C26.4328 46.4519 26.6759 46.5491 26.8414 46.7989C26.5639 46.7558 26.3208 46.6585 26.1123 46.5073Z" fill="white"/>
</g>
<g id="Group_18">
<path id="Vector_18" opacity="0.608" fill-rule="evenodd" clip-rule="evenodd" d="M24.2168 47.8203C24.6818 47.8725 25.1193 47.9698 25.5292 48.112C25.0368 48.175 24.5993 48.0777 24.2168 47.8203Z" fill="white"/>
</g>
<g id="Group_19">
<path id="Vector_19" opacity="0.631" fill-rule="evenodd" clip-rule="evenodd" d="M12.5508 53.3604C13.0848 53.3929 13.5708 53.5387 14.009 53.7978C13.475 53.7653 12.989 53.6195 12.5508 53.3604Z" fill="white"/>
</g>
<g id="Group_20">
<path id="Vector_20" opacity="0.514" fill-rule="evenodd" clip-rule="evenodd" d="M16.9253 54.3816C17.3938 54.3364 17.8313 54.3849 18.2377 54.5274C18.2472 54.5913 18.223 54.64 18.1648 54.6732C17.7362 54.5816 17.3231 54.4844 16.9253 54.3816Z" fill="white"/>
</g>
<g id="Group_21">
<path id="Vector_21" opacity="0.514" fill-rule="evenodd" clip-rule="evenodd" d="M19.113 56.5694C18.6445 56.5242 18.207 56.5728 17.8006 56.7152C17.6281 56.5688 17.4337 56.4472 17.2173 56.3507C17.8707 56.3478 18.5027 56.4207 19.113 56.5694Z" fill="white"/>
</g>
</g>
</svg>
