<svg width="24" height="24" viewBox="0 0 24 24" fill="none" xmlns="http://www.w3.org/2000/svg">
<g id="dashicons:email">
<path id="Vector" d="M4.64418 4.7998H20.5442C22.0442 4.7998 22.8002 5.5078 22.8002 6.9478V17.0518C22.8002 18.4798 22.0442 19.1998 20.5442 19.1998H4.64418C3.14418 19.1998 2.38818 18.4798 2.38818 17.0518V6.9478C2.38818 5.5078 3.14418 4.7998 4.64418 4.7998ZM12.5882 15.1198L20.6762 8.4838C20.9642 8.2438 21.1922 7.6918 20.8322 7.1998C20.4842 6.7078 19.8482 6.6958 19.4282 6.9958L12.5882 11.6278L5.76018 6.9958C5.34018 6.6958 4.70418 6.7078 4.35618 7.1998C3.99618 7.6918 4.22418 8.2438 4.51218 8.4838L12.5882 15.1198Z" fill="white"/>
</g>
</svg>
