<svg width="33" height="24" viewBox="0 0 33 24" fill="none" xmlns="http://www.w3.org/2000/svg">
<path opacity="0.2" d="M9.6391 18.2085C9.6391 19.0558 9.38784 19.8841 8.91709 20.5886C8.44634 21.2931 7.77725 21.8422 6.99443 22.1665C6.2116 22.4908 5.3502 22.5756 4.51916 22.4103C3.68811 22.245 2.92475 21.837 2.3256 21.2378C1.72645 20.6387 1.31843 19.8753 1.15312 19.0443C0.987817 18.2132 1.07266 17.3518 1.39691 16.569C1.72117 15.7862 2.27028 15.1171 2.97481 14.6463C3.67933 14.1756 4.50763 13.9243 5.35495 13.9243C6.49118 13.9243 7.58087 14.3757 8.3843 15.1791C9.18774 15.9825 9.6391 17.0722 9.6391 18.2085Z" fill="white" fill-opacity="0.4"/>
<path d="M31.818 4.59802L27.5338 0.313874C27.3329 0.112904 27.0603 -5.60255e-09 26.7761 0C26.4919 5.60255e-09 26.2193 0.112904 26.0183 0.313874C25.8173 0.514844 25.7044 0.787418 25.7044 1.07163C25.7044 1.35585 25.8173 1.62842 26.0183 1.82939L28.475 4.28475H26.7761C20.1718 4.28475 18.6027 8.04944 17.2197 11.3697C15.964 14.3833 14.9545 16.8038 10.5954 17.1051C10.3218 15.8065 9.57585 14.6557 8.50206 13.8759C7.42826 13.096 6.10316 12.7427 4.78364 12.8843C3.46413 13.0259 2.2442 13.6525 1.36038 14.6424C0.476564 15.6324 -0.00818949 16.9153 0.000104701 18.2424C0.00839889 19.5694 0.509149 20.8461 1.40527 21.825C2.3014 22.8038 3.52906 23.4151 4.85024 23.5402C6.17143 23.6654 7.49201 23.2955 8.55597 22.5023C9.61993 21.7091 10.3515 20.5491 10.6088 19.2471C16.4004 18.8924 17.8838 15.3445 19.1958 12.193C20.5386 8.97054 21.5989 6.42682 26.7761 6.42682H28.475L26.0183 8.88217C25.8173 9.08314 25.7044 9.35572 25.7044 9.63993C25.7044 9.92415 25.8173 10.1967 26.0183 10.3977C26.2193 10.5987 26.4919 10.7116 26.7761 10.7116C27.0603 10.7116 27.3329 10.5987 27.5338 10.3977L31.818 6.11354C31.9176 6.01407 31.9966 5.89595 32.0505 5.76593C32.1044 5.6359 32.1321 5.49653 32.1321 5.35578C32.1321 5.21503 32.1044 5.07566 32.0505 4.94564C31.9966 4.81562 31.9176 4.69749 31.818 4.59802ZM5.35533 21.4213C4.71983 21.4213 4.09861 21.2329 3.57022 20.8798C3.04182 20.5268 2.62999 20.025 2.3868 19.4378C2.1436 18.8507 2.07997 18.2047 2.20395 17.5814C2.32793 16.9581 2.63395 16.3856 3.08331 15.9362C3.53267 15.4869 4.1052 15.1808 4.72848 15.0569C5.35176 14.9329 5.99781 14.9965 6.58493 15.2397C7.17205 15.4829 7.67387 15.8947 8.02693 16.4231C8.37999 16.9515 8.56844 17.5727 8.56844 18.2082C8.56844 19.0604 8.22992 19.8777 7.62734 20.4802C7.02477 21.0828 6.2075 21.4213 5.35533 21.4213Z" fill="white" fill-opacity="0.4"/>
</svg>
